<?xml version="1.0" standalone="no"?>
<!DOCTYPE svg PUBLIC "-//W3C//DTD SVG 20010904//EN"
 "http://www.w3.org/TR/2001/REC-SVG-20010904/DTD/svg10.dtd">
<svg version="1.0" xmlns="http://www.w3.org/2000/svg"
 width="1024.000000pt" height="1024.000000pt" viewBox="0 0 1024.000000 1024.000000"
 preserveAspectRatio="xMidYMid meet">
<metadata>
Created by potrace 1.11, written by Peter Selinger 2001-2013
</metadata>
<g transform="translate(0.000000,1024.000000) scale(0.100000,-0.100000)"
fill="#000000" stroke="none">
<path d="M4845 10073 c-640 -33 -1318 -209 -1891 -492 -239 -118 -337 -173
-542 -308 -501 -328 -921 -722 -1274 -1196 -762 -1022 -1099 -2309 -937 -3582
110 -863 433 -1657 959 -2360 326 -434 749 -834 1212 -1144 458 -305 988 -542
1516 -676 439 -111 753 -149 1232 -149 479 0 793 38 1232 149 1167 296 2213
1037 2888 2044 178 266 370 629 488 926 309 775 416 1621 311 2455 -167 1332
-860 2528 -1936 3343 -127 96 -416 286 -543 357 -762 426 -1611 646 -2465 638
-104 -1 -217 -3 -250 -5z m-1194 -2887 c228 -49 485 -237 661 -486 133 -187
246 -450 293 -684 35 -171 42 -283 22 -323 -49 -94 -174 -122 -247 -55 -16 15
-79 117 -141 227 -165 297 -237 389 -380 482 -98 64 -190 95 -302 101 -116 6
-193 -10 -306 -65 -79 -38 -108 -59 -181 -131 -100 -101 -142 -162 -274 -402
-54 -98 -111 -189 -130 -207 -83 -77 -224 -37 -255 72 -23 84 43 425 121 620
95 242 256 477 425 620 233 199 471 278 694 231z m3200 0 c228 -49 484 -237
662 -486 83 -117 185 -320 231 -460 47 -143 88 -346 89 -452 2 -73 -1 -91 -19
-114 -38 -52 -71 -69 -133 -69 -89 0 -109 21 -225 231 -54 99 -122 215 -151
259 -102 154 -250 277 -391 324 -84 29 -220 38 -307 22 -99 -19 -232 -89 -314
-165 -98 -91 -152 -168 -283 -401 -62 -110 -124 -212 -138 -228 -73 -77 -209
-51 -253 48 -22 49 -21 86 7 260 73 450 330 880 653 1093 201 132 387 177 572
138z m-4096 -3390 c693 -202 1710 -302 2728 -268 853 29 1471 112 2021 273
117 35 149 41 200 37 112 -10 216 -81 267 -185 82 -166 -46 -558 -287 -883
-94 -126 -294 -329 -424 -430 -491 -379 -1106 -629 -1765 -717 -180 -23 -570
-23 -750 0 -783 104 -1507 438 -1985 917 -143 142 -252 282 -333 426 -136 241
-211 509 -177 634 26 100 117 195 214 226 72 22 133 16 291 -30z"/>
</g>
</svg>
